<svg width="149" height="59" viewBox="0 0 149 59" fill="none" xmlns="http://www.w3.org/2000/svg">
<path d="M47.7619 25.4987C47.5154 25.4987 46.8232 25.4797 45.6855 25.4418C44.5477 25.4228 43.8461 25.4133 43.5806 25.4133C42.6893 25.4133 41.8549 25.4418 41.0775 25.4987C40.812 25.5366 40.6129 25.5176 40.4801 25.4418C40.3474 25.3659 40.2526 25.2047 40.1957 24.9582C39.6268 22.8913 39.3992 21.1751 39.513 19.8098C39.513 19.7719 39.4656 19.459 39.3708 18.8711C36.6591 18.7194 35.0946 18.6246 34.6775 18.5867C34.2223 18.5677 33.7767 18.5013 33.3406 18.3876C32.9234 18.2927 32.5726 18.3401 32.2881 18.5298C32.0037 18.7004 31.8046 18.9754 31.6908 19.3547C31.2357 21.1182 30.7426 23.0619 30.2117 25.1858C30.1927 25.2996 30.1263 25.4323 30.0126 25.584C29.9178 25.7357 29.8229 25.8116 29.7281 25.8116C28.0404 25.9064 26.3527 25.9633 24.665 25.9822C24.3806 26.0012 24.172 25.9159 24.0392 25.7262C23.9065 25.5366 23.8781 25.2901 23.9539 24.9867C25.8881 16.1499 27.1966 10.6127 27.8792 8.37511C27.993 7.99585 28.1542 7.41748 28.3628 6.64C28.5714 5.86252 28.7326 5.28415 28.8463 4.90489C28.9791 4.50667 29.1592 4.04207 29.3868 3.51111C29.6143 2.98015 29.8609 2.51556 30.1263 2.11733C30.3918 1.71911 30.7616 1.51052 31.2357 1.49156C33.8905 1.35881 36.2229 1.21659 38.233 1.06489C39.1432 1.008 39.8259 1.1123 40.281 1.37778C40.7361 1.64326 41.0964 2.12681 41.3619 2.82844C42.1583 4.85748 42.7936 6.64 43.2677 8.176C43.4004 8.59319 43.884 10.4326 44.7183 13.6942L46.425 20.2933C46.4819 20.5019 46.6526 21.1941 46.937 22.3698C47.2404 23.5455 47.4206 24.2471 47.4775 24.4747C47.5154 24.5695 47.5723 24.7117 47.6481 24.9013C47.7429 25.1099 47.7998 25.2332 47.8188 25.2711C47.8378 25.347 47.8472 25.4039 47.8472 25.4418C47.8472 25.4797 47.8188 25.4987 47.7619 25.4987ZM33.6535 8.63111C33.4449 11.2859 33.3216 12.7556 33.2837 13.04C33.2458 13.571 33.4923 13.8364 34.0232 13.8364C36.1281 13.8175 37.4081 13.8175 37.8632 13.8364C38.1477 13.8364 38.3373 13.7796 38.4321 13.6658C38.5459 13.533 38.5838 13.3339 38.5459 13.0684C38.2615 10.6412 38.1003 9.29481 38.0623 9.02933C38.0434 8.95348 37.996 8.87763 37.9201 8.80178C37.8443 8.70696 37.7684 8.65956 37.6926 8.65956C37.1806 8.64059 35.8342 8.63111 33.6535 8.63111ZM59.9575 23.5076C60.0333 23.8868 60.0712 24.1333 60.0712 24.2471C60.1661 25.821 59.4075 26.6364 57.7957 26.6933C56.4303 26.7123 55.5391 26.7502 55.1219 26.8071C54.4772 26.883 54.1074 26.5985 54.0126 25.9538C53.9367 25.2901 53.8419 24.5695 53.7281 23.792C53.6333 23.0335 53.5764 22.6163 53.5575 22.5404C53.5575 22.4646 53.529 22.1896 53.4721 21.7156C53.4342 21.2415 53.4152 20.957 53.4152 20.8622C53.4152 20.7484 53.3868 20.2933 53.3299 19.4969C53.292 18.7004 53.2446 17.9324 53.1877 17.1929C50.7604 17.4015 49.4709 17.5153 49.3192 17.5342C48.8072 17.6101 48.4943 17.6101 48.3806 17.5342C48.2668 17.4394 48.1815 17.1644 48.1246 16.7093C48.0677 16.2542 48.0013 15.3156 47.9255 13.8933C47.9065 13.4951 48.0961 13.2391 48.4943 13.1253C50.6372 12.3858 51.9077 11.9496 52.3059 11.8169C52.4955 11.76 52.6188 11.6841 52.6757 11.5893C52.7515 11.4945 52.7895 11.3333 52.7895 11.1058C52.7326 9.15259 53.1118 7.0477 53.9272 4.79111C54.1548 4.336 54.4298 3.94726 54.7521 3.62489L54.9797 3.39733C55.0555 3.32148 55.1598 3.22667 55.2926 3.11289C55.4443 2.99911 55.5675 2.89481 55.6623 2.8C56.9139 1.66222 59.2653 1.01748 62.7166 0.865778C63.2665 0.846815 63.5983 0.894222 63.7121 1.008C63.8449 1.10281 63.9492 1.4157 64.025 1.94667C64.0629 2.288 64.1578 3.71022 64.3095 6.21333C64.3095 6.2323 64.281 6.35556 64.2241 6.58311C62.4985 6.58311 61.5598 6.59259 61.4081 6.61156C61.0289 6.64948 60.6496 6.87704 60.2703 7.29422C59.8911 7.71141 59.692 8.10963 59.673 8.48889V11.7884C60.2229 11.7695 60.5169 11.7505 60.5548 11.7316C61.4461 11.485 62.4511 11.4566 63.5699 11.6462C64.2526 11.76 64.5749 12.1487 64.537 12.8124C64.4232 14.3105 64.281 15.7422 64.1103 17.1076C64.0914 17.2024 64.0155 17.3067 63.8828 17.4204C63.7501 17.5153 63.6268 17.5721 63.513 17.5911C62.8114 17.7428 61.7779 17.9135 60.4126 18.1031C60.204 18.141 60.0618 18.2169 59.9859 18.3307C59.9101 18.4255 59.8721 18.5961 59.8721 18.8427C59.929 20.208 59.9575 21.763 59.9575 23.5076ZM72.1889 14.32C70.9184 14.5096 70.1599 14.6234 69.9134 14.6613C69.3066 14.7751 68.8894 14.7561 68.6618 14.6044C68.4343 14.4338 68.311 14.0735 68.292 13.5236C68.1972 12.0444 68.1783 10.736 68.2352 9.59822C68.2352 9.31378 68.3394 9.07674 68.548 8.88711C68.7566 8.67852 69.0032 8.55526 69.2876 8.51733C69.4583 8.49837 70.4538 8.40356 72.2743 8.23289C72.4449 7.24681 72.5303 6.72533 72.5303 6.66844C72.5682 6.5357 72.663 6.05215 72.8147 5.21778C72.9854 4.38341 73.0707 3.95674 73.0707 3.93778C73.1466 3.50163 73.4215 3.21719 73.8956 3.08444C75.4885 2.66726 76.7874 2.79052 77.7925 3.45422C78.1528 3.68178 78.3329 4.03259 78.3329 4.50667C78.3329 4.81007 78.3898 5.872 78.5036 7.69244C78.5415 8.12859 78.807 8.30874 79.3 8.23289C80.0017 8.10015 80.7128 8.0243 81.4334 8.00533C82.5332 7.96741 83.1116 8.48889 83.1685 9.56978C83.2064 10.1576 83.1969 11.2385 83.14 12.8124C83.14 13.0779 82.9599 13.3055 82.5996 13.4951C82.2583 13.6658 81.9074 13.7701 81.5472 13.808C81.3954 13.827 80.8455 13.9218 79.8974 14.0924C79.4423 14.1683 79.2147 14.4338 79.2147 14.8889C79.2526 16.5197 79.3095 18.179 79.3854 19.8667C79.3854 20.1511 79.4707 20.3881 79.6414 20.5778C79.812 20.7484 80.0396 20.8527 80.324 20.8907C80.5706 20.9476 80.9877 20.8338 81.5756 20.5493C82.1824 20.2459 82.647 20.0942 82.9694 20.0942C83.4814 20.1132 83.7943 20.1796 83.908 20.2933C84.0408 20.4071 84.0977 20.7105 84.0787 21.2036C84.0597 22.0948 83.9365 22.9481 83.7089 23.7636C83.5003 24.5979 83.178 25.1194 82.7418 25.328C81.092 26.1624 79.1863 26.6649 77.0245 26.8356C75.6971 26.9493 74.9765 27.0062 74.8627 27.0062C73.7439 27.0062 73.0992 26.4847 72.9285 25.4418C72.6251 23.5834 72.4165 22.019 72.3027 20.7484C72.1889 19.4779 72.151 17.9324 72.1889 16.112C72.1889 15.3156 72.1889 14.7182 72.1889 14.32ZM106.99 19.0987C106.061 19.0987 103.179 19.0418 98.3434 18.928C98.3244 18.928 98.1537 18.947 97.8314 18.9849C97.8883 19.8951 98.3149 20.5493 99.1114 20.9476C99.9078 21.3458 100.856 21.4406 101.956 21.232C102.108 21.1941 102.259 21.0898 102.411 20.9191C102.582 20.7484 102.686 20.5873 102.724 20.4356C102.838 20.0942 103.065 19.9236 103.406 19.9236C104.942 19.8667 106.156 19.8477 107.047 19.8667C107.123 19.8856 107.209 19.971 107.303 20.1227C107.417 20.2554 107.465 20.3692 107.446 20.464C107.332 22.0759 107.057 23.2516 106.621 23.9911C106.185 24.7307 105.36 25.3754 104.146 25.9253C103.937 26.0391 103.757 26.096 103.606 26.096C103.359 26.115 102.468 26.2382 100.932 26.4658C99.3958 26.6933 98.2201 26.7407 97.4047 26.608C95.3567 26.2856 93.6785 25.6599 92.37 24.7307C91.0616 23.8204 90.1324 22.531 89.5825 20.8622C89.5446 20.6916 89.4592 20.445 89.3265 20.1227C89.1937 19.7813 89.0894 19.4684 89.0136 19.184C88.9567 18.8806 88.9377 18.5677 88.9567 18.2453C89.4118 14.9837 90.4169 12.509 91.9718 10.8213C93.944 8.69748 96.2764 7.61659 98.9692 7.57867C99.4622 7.5597 100.572 7.63556 102.297 7.80622C103.359 7.92 104.336 8.60267 105.227 9.85422C105.341 9.98696 105.473 10.1766 105.625 10.4231C105.796 10.6507 105.91 10.8119 105.966 10.9067C106.023 10.9825 106.109 11.1058 106.222 11.2764C106.336 11.4471 106.422 11.5988 106.478 11.7316C106.554 11.8453 106.64 11.997 106.734 12.1867C106.829 12.3763 106.924 12.5849 107.019 12.8124C107.303 13.4761 107.474 14.2347 107.531 15.088C107.607 15.9224 107.607 16.7947 107.531 17.7049C107.512 18.1979 107.493 18.5298 107.474 18.7004C107.474 18.7763 107.408 18.8616 107.275 18.9564C107.161 19.0513 107.066 19.0987 106.99 19.0987ZM97.234 15.5147H100.846C101.529 15.4578 101.927 15.3535 102.041 15.2018C102.174 15.0501 102.193 14.6329 102.098 13.9502C102.098 13.8175 102.041 13.6847 101.927 13.552C101.814 13.4003 101.7 13.296 101.586 13.2391C101.491 13.1822 100.771 12.9167 99.4243 12.4427C98.9123 12.253 98.4477 12.3953 98.0305 12.8693C97.4806 13.5141 97.2151 14.3959 97.234 15.5147ZM110.266 17.392C110.266 16.7852 110.38 14.8889 110.608 11.7031C110.608 11.6652 110.579 11.4661 110.522 11.1058C113.044 10.7834 114.438 10.5938 114.704 10.5369C115.178 10.4231 115.443 10.5938 115.5 11.0489C115.519 11.3333 115.614 12.253 115.785 13.808C115.785 13.827 115.804 14.0735 115.842 14.5476C117.15 13.6563 117.842 13.1917 117.918 13.1538C119.151 12.4142 120.592 12.1677 122.242 12.4142C123.531 12.6039 124.176 12.803 124.176 13.0116C124.176 13.2581 124.204 13.5804 124.261 13.9787C124.356 14.851 124.308 16.0646 124.119 17.6196C124.1 17.7902 123.996 17.9704 123.806 18.16C123.616 18.3307 123.436 18.4539 123.266 18.5298C122.924 18.6815 122.09 18.9185 120.762 19.2409C119.814 19.5064 119.075 19.9046 118.544 20.4356C118.032 20.9476 117.738 21.6776 117.662 22.6258C117.586 23.6687 117.539 24.7307 117.52 25.8116C117.52 26.2856 117.283 26.5227 116.809 26.5227C115.348 26.4847 114.173 26.4658 113.282 26.4658C113.149 26.4658 112.788 26.4753 112.201 26.4942C111.632 26.5132 111.281 26.5227 111.148 26.5227C110.864 26.5227 110.674 26.4563 110.579 26.3236C110.484 26.2098 110.437 26.0012 110.437 25.6978C110.456 25.2047 110.447 24.5126 110.409 23.6213C110.371 22.7301 110.352 22.1138 110.352 21.7724C110.295 19.7434 110.266 18.2833 110.266 17.392ZM11.6907 31.8089C16.0142 31.8089 18.176 31.8089 18.176 31.8089C18.3277 31.8089 18.5837 31.8279 18.944 31.8658C19.3233 31.8847 19.712 31.9227 20.1102 31.9796C20.5274 32.0175 20.7834 32.0364 20.8782 32.0364C21.3144 32.0554 21.5135 32.2924 21.4756 32.7476C21.248 34.8335 21.011 36.9289 20.7644 39.0338C20.7076 39.4699 20.3662 39.7544 19.7404 39.8871C17.8821 40.2664 16.1849 40.3991 14.6489 40.2853C14.1179 40.2664 13.7007 40.2569 13.3973 40.2569C13.0939 40.2569 12.6388 40.2664 12.032 40.2853C11.4252 40.2853 10.9985 40.2853 10.752 40.2853C11.0364 41.5179 11.2071 42.2196 11.264 42.3902C11.3209 42.5609 11.539 42.6557 11.9182 42.6747C14.1369 42.7505 16.4978 42.9022 19.0009 43.1298C19.1336 45.1967 19.2 46.3345 19.2 46.5431C19.2 46.9224 19.0767 47.2353 18.8302 47.4818C18.6027 47.7093 18.3087 47.8516 17.9484 47.9084C16.0142 48.2119 13.4353 48.4963 10.2116 48.7618C9.984 49.5582 9.97452 50.971 10.1831 53C10.24 53.9861 10.259 55.2945 10.24 56.9253C10.1831 57.1339 10.1167 57.2761 10.0409 57.352C9.96504 57.4279 9.8323 57.4753 9.64267 57.4942C9.60474 57.5132 9.55733 57.5227 9.50044 57.5227C9.46252 57.5416 9.40563 57.5511 9.32978 57.5511H9.216C8.98844 57.5511 8.26785 57.5606 7.05422 57.5796C5.84059 57.6175 5.09156 57.6459 4.80711 57.6649C4.59852 57.6649 3.2237 57.7407 0.682667 57.8924C0.625778 57.3425 0.597333 57.0581 0.597333 57.0391C0.881778 53.6827 0.948148 51.0279 0.796444 49.0747C0.777481 48.1265 0.805926 47.1784 0.881778 46.2302C1.10933 44.0116 1.24207 42.4187 1.28 41.4516C1.28 41.3757 1.26104 41.1576 1.22311 40.7973C1.18519 40.4181 1.16622 40.1905 1.16622 40.1147C1.33689 37.6116 1.52652 35.1179 1.73511 32.6338C1.792 32.3493 1.8963 32.1787 2.048 32.1218C2.08593 32.1028 2.24711 32.0459 2.53156 31.9511C2.816 31.8563 2.99615 31.7994 3.072 31.7804C3.14785 31.7615 3.31852 31.7141 3.584 31.6382C3.84948 31.5434 4.03911 31.4865 4.15289 31.4676C4.28563 31.4296 4.47526 31.3822 4.72178 31.3253C4.9683 31.2684 5.17689 31.24 5.34756 31.24C5.51822 31.221 5.70785 31.2021 5.91644 31.1831C6.144 31.1641 6.35259 31.1641 6.54222 31.1831C6.75081 31.1831 6.95941 31.1926 7.168 31.2116C7.41452 31.2495 7.86015 31.3348 8.50489 31.4676C9.16859 31.5813 9.728 31.6667 10.1831 31.7236C10.6382 31.7615 11.1407 31.7899 11.6907 31.8089ZM43.8186 50.0987C42.8894 50.0987 40.0071 50.0418 35.1715 49.928C35.1525 49.928 34.9819 49.947 34.6595 49.9849C34.7164 50.8951 35.1431 51.5493 35.9395 51.9476C36.7359 52.3458 37.6841 52.4406 38.7839 52.232C38.9356 52.1941 39.0874 52.0898 39.2391 51.9191C39.4097 51.7484 39.514 51.5873 39.5519 51.4356C39.6657 51.0942 39.8933 50.9236 40.2346 50.9236C41.7706 50.8667 42.9842 50.8477 43.8755 50.8667C43.9514 50.8856 44.0367 50.971 44.1315 51.1227C44.2453 51.2554 44.2927 51.3692 44.2737 51.464C44.1599 53.0759 43.885 54.2516 43.4488 54.9911C43.0127 55.7307 42.1878 56.3754 40.9742 56.9253C40.7656 57.0391 40.5854 57.096 40.4337 57.096C40.1872 57.115 39.2959 57.2382 37.7599 57.4658C36.2239 57.6933 35.0482 57.7407 34.2328 57.608C32.1848 57.2856 30.5066 56.6599 29.1982 55.7307C27.8897 54.8204 26.9605 53.531 26.4106 51.8622C26.3727 51.6916 26.2874 51.445 26.1546 51.1227C26.0219 50.7813 25.9176 50.4684 25.8417 50.184C25.7848 49.8806 25.7659 49.5677 25.7848 49.2453C26.2399 45.9837 27.245 43.509 28.7999 41.8213C30.7721 39.6975 33.1045 38.6166 35.7973 38.5787C36.2903 38.5597 37.3996 38.6356 39.1253 38.8062C40.1872 38.92 41.1638 39.6027 42.0551 40.8542C42.1688 40.987 42.3016 41.1766 42.4533 41.4231C42.6239 41.6507 42.7377 41.8119 42.7946 41.9067C42.8515 41.9825 42.9368 42.1058 43.0506 42.2764C43.1644 42.4471 43.2497 42.5988 43.3066 42.7316C43.3825 42.8453 43.4678 42.997 43.5626 43.1867C43.6574 43.3763 43.7522 43.5849 43.8471 43.8124C44.1315 44.4761 44.3022 45.2347 44.3591 46.088C44.4349 46.9224 44.4349 47.7947 44.3591 48.7049C44.3401 49.1979 44.3211 49.5298 44.3022 49.7004C44.3022 49.7763 44.2358 49.8616 44.1031 49.9564C43.9893 50.0513 43.8945 50.0987 43.8186 50.0987ZM34.0622 46.5147H37.6746C38.3573 46.4578 38.7555 46.3535 38.8693 46.2018C39.002 46.0501 39.021 45.6329 38.9262 44.9502C38.9262 44.8175 38.8693 44.6847 38.7555 44.552C38.6417 44.4003 38.5279 44.296 38.4142 44.2391C38.3194 44.1822 37.5988 43.9167 36.2524 43.4427C35.7404 43.253 35.2758 43.3953 34.8586 43.8693C34.3087 44.5141 34.0432 45.3959 34.0622 46.5147ZM55.5141 38.3227C56.1588 38.3227 57.1449 38.389 58.4723 38.5218C59.7997 38.6356 60.7573 38.6924 61.3452 38.6924C61.5917 38.6924 61.7719 38.7304 61.8856 38.8062C61.9994 38.8821 62.0848 39.0243 62.1416 39.2329C62.3882 39.8966 62.4356 40.6267 62.2839 41.4231C62.1511 42.2006 61.8951 42.7884 61.5159 43.1867C61.3452 43.3763 61.1556 43.4806 60.947 43.4996C60.4539 43.5375 59.7239 43.5564 58.7568 43.5564C58.624 43.5564 58.2922 43.509 57.7612 43.4142C57.2302 43.3004 56.7846 43.2625 56.4243 43.3004C56.064 43.3194 55.827 43.4521 55.7132 43.6987C55.4288 44.4003 55.5236 44.9123 55.9976 45.2347C57.4768 46.2776 58.4913 46.9508 59.0412 47.2542C61.1461 48.2972 62.1037 49.8142 61.9141 51.8053C61.8382 52.6776 61.6676 53.5404 61.4021 54.3938C60.7005 56.6883 58.9179 57.8071 56.0545 57.7502H55.4856V57.6649C55.2391 57.6839 54.253 57.7597 52.5274 57.8924C50.8208 58.0252 49.8347 58.101 49.5692 58.12C49.5692 58.12 49.5408 58.12 49.4839 58.12C49.4459 58.139 49.4175 58.1484 49.3985 58.1484C48.5831 58.1484 48.0332 58.0252 47.7487 57.7787C47.4643 57.5511 47.2842 57.0486 47.2083 56.2711C47.2083 56.2332 47.1893 56.1004 47.1514 55.8729C47.1135 55.6643 47.0945 55.5505 47.0945 55.5316C47.0376 55.0764 47.0661 54.6877 47.1799 54.3653C47.3126 54.0619 47.4738 53.8249 47.6634 53.6542C47.872 53.4836 48.2039 53.3508 48.659 53.256C49.133 53.1801 49.5218 53.1327 49.8252 53.1138C50.1286 53.0948 50.6027 53.0759 51.2474 53.0569C51.5129 53.0379 51.7215 53.0284 51.8732 53.0284C52.9541 52.9905 53.6936 52.9526 54.0919 52.9147C54.4901 52.8578 54.803 52.744 55.0305 52.5733C55.277 52.3837 55.3434 52.1277 55.2296 51.8053C55.2107 51.7295 55.1728 51.6536 55.1159 51.5778C55.0779 51.5019 55.021 51.4261 54.9452 51.3502C54.8883 51.2744 54.8314 51.208 54.7745 51.1511C54.7366 51.0942 54.6702 51.0279 54.5754 50.952C54.4806 50.8761 54.4048 50.8193 54.3479 50.7813C54.3099 50.7244 54.2341 50.6581 54.1203 50.5822C54.0065 50.5064 53.9307 50.459 53.8928 50.44C53.8738 50.4021 53.7979 50.3452 53.6652 50.2693C53.5325 50.1745 53.4566 50.1271 53.4376 50.1271C52.8877 49.7479 51.9396 49.2264 50.5932 48.5627C48.7159 47.5956 47.7108 46.088 47.5781 44.04C47.4833 42.485 47.853 41.2999 48.6874 40.4844C49.5408 39.669 50.7733 39.0433 52.3852 38.6071C53.1627 38.3985 54.2056 38.3037 55.5141 38.3227ZM69.2671 45.32C67.9965 45.5096 67.238 45.6234 66.9915 45.6613C66.3847 45.7751 65.9675 45.7561 65.7399 45.6044C65.5124 45.4338 65.3891 45.0735 65.3702 44.5236C65.2754 43.0444 65.2564 41.736 65.3133 40.5982C65.3133 40.3138 65.4176 40.0767 65.6262 39.8871C65.8348 39.6785 66.0813 39.5553 66.3657 39.5173C66.5364 39.4984 67.5319 39.4036 69.3524 39.2329C69.5231 38.2468 69.6084 37.7253 69.6084 37.6684C69.6463 37.5357 69.7411 37.0521 69.8928 36.2178C70.0635 35.3834 70.1488 34.9567 70.1488 34.9378C70.2247 34.5016 70.4996 34.2172 70.9737 34.0844C72.5666 33.6673 73.8656 33.7905 74.8706 34.4542C75.2309 34.6818 75.4111 35.0326 75.4111 35.5067C75.4111 35.8101 75.4679 36.872 75.5817 38.6924C75.6196 39.1286 75.8851 39.3087 76.3782 39.2329C77.0798 39.1001 77.7909 39.0243 78.5115 39.0053C79.6114 38.9674 80.1897 39.4889 80.2466 40.5698C80.2845 41.1576 80.2751 42.2385 80.2182 43.8124C80.2182 44.0779 80.038 44.3055 79.6777 44.4951C79.3364 44.6658 78.9856 44.7701 78.6253 44.808C78.4736 44.827 77.9236 44.9218 76.9755 45.0924C76.5204 45.1683 76.2928 45.4338 76.2928 45.8889C76.3308 47.5197 76.3876 49.179 76.4635 50.8667C76.4635 51.1511 76.5488 51.3881 76.7195 51.5778C76.8902 51.7484 77.1177 51.8527 77.4022 51.8907C77.6487 51.9476 78.0659 51.8338 78.6537 51.5493C79.2605 51.2459 79.7251 51.0942 80.0475 51.0942C80.5595 51.1132 80.8724 51.1796 80.9862 51.2933C81.1189 51.4071 81.1758 51.7105 81.1568 52.2036C81.1379 53.0948 81.0146 53.9481 80.7871 54.7636C80.5785 55.5979 80.2561 56.1194 79.8199 56.328C78.1702 57.1624 76.2644 57.6649 74.1026 57.8356C72.7752 57.9493 72.0546 58.0062 71.9408 58.0062C70.822 58.0062 70.1773 57.4847 70.0066 56.4418C69.7032 54.5834 69.4946 53.019 69.3808 51.7484C69.2671 50.4779 69.2291 48.9324 69.2671 47.112C69.2671 46.3156 69.2671 45.7182 69.2671 45.32ZM86.9735 42.1058C88.6991 41.499 90.5006 41.499 92.3779 42.1058C93.4209 42.4471 93.9424 43.1298 93.9424 44.1538C93.9614 48.5721 93.9614 52.1751 93.9424 54.9627C93.9234 55.797 93.7907 56.3375 93.5442 56.584C93.3166 56.8305 92.7856 57.0107 91.9513 57.1244C91.8944 57.1434 91.6763 57.1813 91.2971 57.2382C90.9368 57.3141 90.5954 57.3804 90.2731 57.4373C89.9696 57.4942 89.7421 57.5227 89.5904 57.5227C89.3249 57.5606 89.031 57.4279 88.7086 57.1244C88.3862 56.84 88.1302 56.5461 87.9406 56.2427C87.6562 55.8065 87.4665 55.304 87.3717 54.7351C87.2769 54.1852 87.2105 53.4741 87.1726 52.6018C87.1536 52.469 87.1442 52.3647 87.1442 52.2889C87.1062 51.208 87.0494 48.904 86.9735 45.3769V42.1058ZM86.2339 33.0036C86.4425 32.9467 86.7839 32.8519 87.2579 32.7191C87.751 32.5864 88.1966 32.4726 88.5948 32.3778C88.9931 32.283 89.3534 32.2071 89.6757 32.1502C90.5291 32.0364 91.1643 32.283 91.5815 32.8898C91.9987 33.4776 92.2073 34.2741 92.2073 35.2791C92.2073 35.829 92.1409 36.4833 92.0082 37.2418C91.9513 37.5831 91.9228 37.7917 91.9228 37.8676C91.847 38.3416 91.4772 38.5881 90.8135 38.6071C89.2585 38.664 88.1871 38.6924 87.5993 38.6924C87.2959 38.6545 87.0494 38.4933 86.8597 38.2089C86.0822 36.8625 85.8452 35.4403 86.1486 33.9422C86.1486 33.9233 86.1771 33.6104 86.2339 33.0036ZM107.846 49.3591C107.884 49.3022 108.026 49.1031 108.272 48.7618C108.519 48.4015 108.671 48.1265 108.728 47.9369C108.765 47.8231 109.609 45.2062 111.259 40.0862C111.259 40.0673 111.335 39.8871 111.487 39.5458H115.44C116.161 39.5647 116.872 39.6501 117.574 39.8018C117.972 39.8966 118.095 40.219 117.944 40.7689C117.773 41.3757 117.498 42.3713 117.119 43.7556C116.758 45.1209 116.493 46.088 116.322 46.6569C115.412 49.5393 114.511 52.1941 113.62 54.6213C113.43 55.0764 112.937 55.8539 112.141 56.9538C111.951 57.2003 111.657 57.3425 111.259 57.3804C108.775 57.608 106.461 57.4184 104.319 56.8116C103.996 56.7167 103.674 56.5366 103.352 56.2711C103.048 56.0246 102.84 55.7591 102.726 55.4747C100.886 50.8667 99.2366 46.4009 97.7764 42.0773C97.7195 41.9067 97.6911 41.736 97.6911 41.5653C97.6721 40.8258 97.7195 40.3896 97.8333 40.2569C97.9471 40.1241 98.3738 40.0293 99.1133 39.9724C100.232 39.8776 101.484 39.7544 102.868 39.6027C103.304 39.5647 103.579 39.7354 103.693 40.1147C103.826 40.5319 103.968 40.949 104.12 41.3662C104.29 41.7834 104.432 42.1437 104.546 42.4471C104.66 42.7316 104.812 43.1013 105.001 43.5564C105.21 43.9926 105.362 44.315 105.456 44.5236C105.551 44.7321 105.722 45.1019 105.968 45.6329C106.234 46.1639 106.405 46.5241 106.48 46.7138C106.537 46.8086 106.992 47.6904 107.846 49.3591ZM133.64 55.9582C133.545 55.9582 133.45 55.9203 133.356 55.8444C133.261 55.7686 133.157 55.6738 133.043 55.56C132.948 55.4652 132.882 55.3988 132.844 55.3609C131.042 56.0815 129.468 56.4133 128.122 56.3564C126.074 56.2616 124.32 55.8539 122.86 55.1333C121.305 54.3748 120.366 53.0474 120.044 51.1511C119.721 49.2359 119.74 47.2447 120.101 45.1778C120.366 43.6607 121.191 42.3239 122.575 41.1671C124.092 39.8966 125.846 39.2803 127.837 39.3182C129.449 39.3561 130.663 39.8207 131.478 40.712V40.3138C131.44 39.6501 131.507 39.2329 131.677 39.0622C131.81 38.9105 132.151 38.7967 132.701 38.7209C133.251 38.6261 133.782 38.5787 134.294 38.5787C134.655 38.5787 135.034 38.5976 135.432 38.6356C135.849 38.6545 136.314 38.6924 136.826 38.7493C137.338 38.7873 137.698 38.8157 137.907 38.8347C138.343 38.8726 138.637 38.9769 138.789 39.1476C138.94 39.2993 139.016 39.5932 139.016 40.0293C139.016 40.6551 139.016 41.4041 139.016 42.2764C139.035 43.1487 139.045 43.784 139.045 44.1822C139.063 44.5615 139.063 45.0356 139.045 45.6044C139.045 46.1544 139.026 46.6664 138.988 47.1404C138.969 47.5956 138.931 48.117 138.874 48.7049C138.741 49.9375 138.675 50.7339 138.675 51.0942C138.675 51.8907 138.523 53 138.22 54.4222C138.125 54.8584 137.954 55.1713 137.708 55.3609C137.48 55.5695 137.129 55.7022 136.655 55.7591C135.195 55.8919 134.19 55.9582 133.64 55.9582ZM127.013 46.1449C126.406 46.4673 126.017 47.0172 125.846 47.7947C125.695 48.5721 125.865 49.2643 126.358 49.8711C126.738 50.3073 127.107 50.5917 127.468 50.7244C127.828 50.8382 128.359 50.8098 129.061 50.6391C129.516 50.4684 129.838 50.184 130.028 49.7858C130.028 49.7858 130.066 49.7004 130.141 49.5298C130.236 49.3401 130.293 49.2074 130.312 49.1316C130.35 49.0557 130.397 48.923 130.454 48.7333C130.511 48.5437 130.54 48.392 130.54 48.2782C130.559 48.1455 130.559 47.9938 130.54 47.8231C130.521 47.6524 130.473 47.5007 130.397 47.368C130.208 46.9887 129.895 46.581 129.459 46.1449C129.136 45.8794 128.748 45.7561 128.293 45.7751C127.837 45.7941 127.411 45.9173 127.013 46.1449ZM147.525 47.8231C147.525 48.3161 147.611 51.0373 147.781 55.9867V56.6409C147.781 56.6599 147.525 56.6788 147.013 56.6978C146.52 56.7357 145.961 56.7641 145.335 56.7831C144.728 56.821 144.368 56.8495 144.254 56.8684C143.325 56.9253 142.642 57.0012 142.206 57.096H141.609C141.495 56.2616 141.438 55.8255 141.438 55.7876C141.419 50.952 141.429 48.0412 141.467 47.0551C141.467 46.9982 141.495 46.3724 141.552 45.1778C141.628 43.9641 141.713 42.2954 141.808 40.1716C141.922 38.0477 142.017 36.0376 142.092 34.1413C142.092 34.0655 142.102 33.9707 142.121 33.8569C142.121 33.5914 142.121 33.4018 142.121 33.288C142.14 33.1553 142.168 33.0036 142.206 32.8329C142.263 32.6433 142.33 32.5105 142.405 32.4347C142.481 32.3588 142.586 32.2924 142.718 32.2356C142.87 32.1597 143.05 32.1218 143.259 32.1218C144.738 32.1597 146.151 32.2071 147.497 32.264C148.085 32.3019 148.369 32.6243 148.35 33.2311C148.312 34.312 148.265 35.4213 148.208 36.5591C148.151 37.6969 148.113 38.4554 148.094 38.8347C148.075 39.2139 148.047 39.7164 148.009 40.3422C147.99 40.949 147.952 41.5084 147.895 42.0204C147.857 42.5135 147.8 43.2246 147.725 44.1538C147.592 45.7467 147.525 46.9698 147.525 47.8231Z" fill="#495057"/>
</svg>
